#N canvas 262 234 600 400 10;
#X obj 3 7 cnv 15 434 315 empty empty empty 20 12 0 14 #b7022c #373737 0;
#X obj 50 30 adc~ 1 2;
#X obj 50 66 env~ 1024;
#X obj 49 160 vsl 16 136 1.27 127 0 0 empty empty LEFT -3 -9 1 10 #ffffff #00ff04 #202020 0 1;
#X obj 133 157 vsl 16 136 0 127 0 0 empty empty empty 0 -9 0 10 #fcfcfc #000000 #000000 0 1;
#X floatatom 50 110 5 0 0 0 - - - 0;
#X obj 133 65 env~ 1024;
#X floatatom 133 110 5 0 0 0 - - - 0;
#X obj 245 18 tgl 16 0 empty empty empty 0 -8 0 10 #fcfcfc #000000 #000000 0 1;
#X msg 247 105 \; pd dsp 1;
#X msg 347 105 \; pd dsp 0;
#X obj 246 49 sel 1 0;
#X obj 283 213 tgl 16 0 empty empty empty 0 -8 0 10 #fcfcfc #000000 #000000 0 1;
#X obj 214 213 tgl 32 0 empty empty empty 0 -8 0 10 #fcfcfc #000000 #000000 0 1;
#X obj 424 406;
#X connect 1 0 2 0;
#X connect 1 1 6 0;
#X connect 2 0 5 0;
#X connect 5 0 3 0;
#X connect 6 0 7 0;
#X connect 7 0 4 0;
#X connect 8 0 11 0;
#X connect 11 0 9 0;
#X connect 11 1 10 0;
